<?xml version="1.0" standalone="no"?><!DOCTYPE svg PUBLIC "-//W3C//DTD SVG 1.1//EN" "http://www.w3.org/Graphics/SVG/1.1/DTD/svg11.dtd"><svg t="1742732837354" class="icon" viewBox="0 0 1024 1024" version="1.1" xmlns="http://www.w3.org/2000/svg" p-id="5085" xmlns:xlink="http://www.w3.org/1999/xlink" width="200" height="200"><path d="M512 0a512 512 0 1 0 512 512A512 512 0 0 0 512 0z m0 947.712A435.712 435.712 0 1 1 947.712 512 435.712 435.712 0 0 1 512 947.712z m195.584-471.04l-264.192-153.6a41.472 41.472 0 0 0-61.44 35.328v307.2a40.96 40.96 0 0 0 61.44 35.328l264.192-153.6a41.984 41.984 0 0 0 0-70.656z" fill="#1677ff" p-id="5086"></path></svg>