<?xml version="1.0" standalone="no"?><!DOCTYPE svg PUBLIC "-//W3C//DTD SVG 1.1//EN" "http://www.w3.org/Graphics/SVG/1.1/DTD/svg11.dtd"><svg t="1742800206122" class="icon" viewBox="0 0 1024 1024" version="1.1" xmlns="http://www.w3.org/2000/svg" p-id="3818" xmlns:xlink="http://www.w3.org/1999/xlink" width="200" height="200"><path d="M515.041727 670.617766c91.584167 0 166.095647-74.504255 166.095647-166.095646V229.350568c0-91.584167-74.51148-166.095647-166.095647-166.095647-91.598617 0-166.102872 74.51148-166.102871 166.095647V504.52212c0 91.591392 74.504255 166.095647 166.102871 166.095646z" fill="#1677ff" p-id="3819"></path><path d="M801.643237 874.001665H558.391759v-45.423608c161.507768-21.313766 286.60151-159.788217 286.60151-327.01819a43.350032 43.350032 0 0 0-86.700064 0c0 134.124998-109.12648 243.251478-243.258703 243.251479-134.124998 0-243.244253-109.12648-243.244253-243.251479a43.350032 43.350032 0 0 0-86.700063 0c0 167.229972 125.100967 305.711649 286.601509 327.01819v45.423608H228.440217a43.350032 43.350032 0 0 0 0 86.700064h573.20302a43.350032 43.350032 0 0 0 0-86.700064z" fill="#1677ff" p-id="3820"></path></svg>